<svg viewBox="0 0 100 100" fill="none" xmlns="http://www.w3.org/2000/svg">
  <!-- UPPER WINDOW PANE - 4 Squares (Navy) -->
  <rect x="46" y="27" width="3.5" height="3.5" rx="0.5" fill="#132B50" />
  <rect x="50.5" y="27" width="3.5" height="3.5" rx="0.5" fill="#132B50" />
  <rect x="46" y="31.5" width="3.5" height="3.5" rx="0.5" fill="#132B50" />
  <rect x="50.5" y="31.5" width="3.5" height="3.5" rx="0.5" fill="#132B50" />

  <!-- HOUSE ROOF AND CHIMNEY (Navy) -->
  <path
    d="M 23 31.5 
       L 50 11.5 
       L 64.5 11.5 
       L 64.5 22.2
       L 77 31.5 
       L 72.5 35 
       L 50 18.2
       L 27.5 35 
       Z"
    fill="#132B50"
  />

  <!-- LEFT EMBRACING HEART SWOOSH (Teal/Aqua) -->
  <path
    d="M 50 91.5
       C 32 82.5, 14 62, 10.5 40
       C 8.2 25.5, 23 11, 44.5 21
       C 34.5 18, 17.5 25, 17 40.5
       C 16.5 56, 32 75.5, 50 83.5
       Z"
    fill="#06AFBB"
  />

  <!-- RIGHT EMBRACING HEART SWOOSH (Purple) -->
  <path
    d="M 50 91.5
       C 68 82.5, 86 62, 89.5 40
       C 91.8 25.5, 77 11, 55.5 21
       C 65.5 18, 82.5 25, 83 40.5
       C 83.5 56, 68 75.5, 50 83.5
       Z"
    fill="#7D3196"
  />

  <!-- FIGURES IN CENTER -->
  
  <!-- Left Parent (Teal) -->
  <circle cx="34" cy="42" r="5.5" fill="#06AFBB" />
  <path
    d="M 24.5 58.5
       C 24.5 51, 29.5 48.5, 34 48.5
       C 38.5 48.5, 43.5 51, 43.5 58.5
       C 43.5 68.5, 35.5 78, 34 83
       C 32.5 78, 24.5 68.5, 24.5 58.5
       Z"
    fill="#06AFBB"
  />

  <!-- Right Parent (Purple) -->
  <circle cx="66" cy="42" r="5.5" fill="#7D3196" />
  <path
    d="M 56.5 58.5
       C 56.5 51, 61.5 48.5, 66 48.5
       C 70.5 48.5, 75.5 51, 75.5 58.5
       C 75.5 68.5, 67.5 78, 66 83
       C 64.5 78, 56.5 68.5, 56.5 58.5
       Z"
    fill="#7D3196"
  />

  <!-- Center Child (Teal) -->
  <circle cx="50" cy="58" r="4.2" fill="#06AFBB" />
  <path
    d="M 45 71
       C 45 66.5, 47 64, 50 64
       C 53 64, 55 66.5, 55 71
       C 55 78, 51.5 83, 50 87
       C 48.5 83, 45 78, 45 71
       Z"
    fill="#06AFBB"
  />

  <!-- LOWER CRADLING HANDS (Navy Blue) -->
  
  <!-- Left Cradling Hand -->
  <path
    d="M 50 92.5
       C 39.5 89.5, 26 77, 18.5 66.5
       C 14 60, 15.5 57, 16 57.5
       C 17 59, 23.5 67, 30.5 74
       C 38 81.5, 46.5 84, 50 84.5
       Z"
    fill="#132B50"
  />
  <path
    d="M 50 92.5
       C 36.5 85, 23 71.5, 16 57.5
       C 12.5 50.5, 14 47.5, 14.5 48.5
       C 15.5 50, 24.5 63, 35 73.5
       C 43.5 81, 48.5 83.5, 50 84
       Z"
    fill="#132B50"
  />

  <!-- Right Cradling Hand -->
  <path
    d="M 50 92.5
       C 60.5 89.5, 74 77, 81.5 66.5
       C 86 60, 84.5 57, 84 57.5
       C 83 59, 76.5 67, 69.5 74
       C 62 81.5, 53.5 84, 50 84.5
       Z"
    fill="#132B50"
  />
  <path
    d="M 50 92.5
       C 63.5 85, 77 71.5, 84 57.5
       C 87.5 50.5, 86 47.5, 85.5 48.5
       C 84.5 50, 75.5 63, 65 73.5
       C 56.5 81, 51.5 83.5, 50 84
       Z"
    fill="#132B50"
  />
</svg>
